HIERARCHY
ROOT Joint1
{
	OFFSET 0.000000 0.000000 0.000000
	CHANNELS 6 Xposition Yposition Zposition Xrotation Yrotation Zrotation
	JOINT Joint2
	{
		OFFSET -0.000000 0.000000 1.456275
		CHANNELS 6 Xposition Yposition Zposition Xrotation Yrotation Zrotation
		JOINT Joint3
		{
			OFFSET -0.000000 0.000002 1.471446
			CHANNELS 6 Xposition Yposition Zposition Xrotation Yrotation Zrotation
			JOINT Joint4
			{
				OFFSET 0.625745 0.000000 0.917755
				CHANNELS 6 Xposition Yposition Zposition Xrotation Yrotation Zrotation
				JOINT Joint5
				{
					OFFSET -0.629534 0.000001 0.940221
					CHANNELS 6 Xposition Yposition Zposition Xrotation Yrotation Zrotation
					JOINT Joint6
					{
						OFFSET -0.000001 0.113772 1.960660
						CHANNELS 6 Xposition Yposition Zposition Xrotation Yrotation Zrotation
						JOINT Joint7
						{
							OFFSET -0.669733 -0.113771 0.388340
							CHANNELS 6 Xposition Yposition Zposition Xrotation Yrotation Zrotation
							End Site
							{
								OFFSET 0.005509 0.005509 0.438980
							}
						}
					}
				}
			}
		}
	}
}
MOTION
Frames: 14
Frame Time: 0.041667
0.000000 0.000000 0.000000 -0.000000 1.019410 -0.045730 -0.000000 -0.000000 1.456275 0.000000 -44.988585 -0.000000 0.000000 0.000002 1.471446 0.000000 -1.133460 0.011193 0.625745 0.000000 0.917755 0.000004 134.990575 -0.000001 -0.629534 0.000001 0.940221 -0.000000 1.709736 -0.034706 -0.000001 0.113772 1.960660 -88.353360 89.996301 -0.034813 -0.669733 -0.113771 0.388339 -0.705182 3.566198 134.964757 
0.000000 0.000000 0.000000 -0.000000 1.019410 -0.151738 -0.000000 -0.000000 1.456275 0.000000 -45.018736 -0.000000 -0.000000 0.000002 1.471446 0.000000 -1.133458 0.130132 0.625745 0.000000 0.917755 0.000004 134.885444 -0.000001 -0.629534 0.000001 0.940221 0.000000 1.709737 -0.085397 -0.000001 0.113772 1.960660 -88.301000 90.066173 0.001870 -0.669733 -0.113771 0.388340 -0.704815 3.566197 134.944075 
0.000000 0.000000 0.000000 -0.000000 1.019410 -0.326652 -0.000000 -0.000000 1.456275 0.000000 -45.068488 -0.000000 -0.000000 0.000002 1.471446 0.000000 -1.133464 0.326383 0.625745 0.000000 0.917755 0.000004 134.711971 -0.000001 -0.629534 0.000001 0.940221 -0.000000 1.709737 -0.169036 -0.000000 0.113772 1.960661 -88.302851 90.181467 0.000686 -0.669733 -0.113771 0.388339 -0.704209 3.566196 134.909965 
0.000000 0.000000 0.000000 -0.000000 1.019410 -0.569027 -0.000000 0.000000 1.456275 -0.000000 -45.137428 -0.000000 -0.000000 0.000002 1.471446 0.000000 -1.133460 0.598324 0.625745 0.000000 0.917755 0.000004 134.471603 -0.000001 -0.629534 0.000001 0.940221 -0.000000 1.709737 -0.284934 -0.000000 0.113772 1.960661 -88.303343 90.341232 0.000386 -0.669733 -0.113771 0.388340 -0.703369 3.566195 134.862673 
0.000000 0.000000 0.000000 -0.000000 1.019410 -0.877419 -0.000000 -0.000000 1.456275 0.000000 -45.225141 -0.000000 -0.000000 0.000002 1.471446 -0.000000 -1.133458 0.944334 0.625744 0.000000 0.917755 0.000004 134.165761 -0.000001 -0.629534 0.000001 0.940221 0.000000 1.709737 -0.432399 -0.000001 0.113772 1.960660 -88.303547 90.544505 0.000232 -0.669733 -0.113771 0.388339 -0.702300 3.566193 134.802499 
0.000000 0.000000 0.000000 -0.000000 1.019410 -1.250382 -0.000000 -0.000000 1.456275 0.000000 -45.331228 -0.000000 -0.000000 0.000002 1.471446 -0.000000 -1.133457 1.362792 0.625744 0.000000 0.917754 0.000004 133.795865 -0.000001 -0.629534 0.000001 0.940221 0.000000 1.709736 -0.610740 0.000000 0.113772 1.960660 -88.303643 90.790344 0.000157 -0.669733 -0.113771 0.388341 -0.701008 3.566187 134.729743 
0.000000 0.000000 0.000000 -0.000000 1.019410 -1.686471 -0.000000 0.000000 1.456275 0.000000 -45.455268 0.000000 -0.000000 0.000002 1.471446 0.000000 -1.133458 1.852078 0.625744 0.000000 0.917755 0.000004 133.363364 -0.000001 -0.629534 0.000001 0.940221 0.000000 1.709736 -0.819266 -0.000001 0.113772 1.960661 -88.303705 91.077786 0.000115 -0.669733 -0.113771 0.388341 -0.699497 3.566179 134.644667 
0.000000 0.000000 0.000000 -0.000000 1.019410 -2.184242 -0.000000 0.000000 1.456275 0.000000 -45.596847 -0.000000 -0.000001 0.000002 1.471446 0.000000 -1.133461 2.410569 0.625744 0.000000 0.917755 0.000004 132.869705 -0.000001 -0.629534 0.000001 0.940221 0.000000 1.709737 -1.057288 -0.000001 0.113772 1.960660 -88.303752 91.405894 0.000085 -0.669733 -0.113771 0.388341 -0.697772 3.566166 134.547541 
0.000000 0.000000 0.000000 -0.000000 1.019410 -2.742251 -0.000000 0.000000 1.456275 0.000000 -45.755564 -0.000000 -0.000000 0.000002 1.471446 -0.000000 -1.133457 3.036646 0.625744 0.000000 0.917755 0.000004 132.316296 -0.000001 -0.629534 0.000001 0.940221 -0.000000 1.709736 -1.324114 -0.000002 0.113772 1.960660 -88.303773 91.773700 0.000069 -0.669733 -0.113771 0.388340 -0.695838 3.566149 134.438682 
0.000000 0.000000 0.000000 -0.000000 1.019410 -3.359051 -0.000000 -0.000000 1.456275 -0.000000 -45.931000 -0.000000 -0.000000 0.000002 1.471446 -0.000000 -1.133464 3.728684 0.625745 0.000000 0.917755 0.000003 131.704571 -0.000001 -0.629534 0.000001 0.940221 0.000000 1.709736 -1.619052 -0.000001 0.113772 1.960660 -88.303793 92.180260 0.000062 -0.669733 -0.113771 0.388340 -0.693701 3.566126 134.318347 
0.000000 0.000000 0.000000 -0.000000 1.019410 -4.033198 -0.000000 -0.000000 1.456275 0.000000 -46.122748 -0.000000 -0.000000 0.000002 1.471446 0.000000 -1.133455 4.485067 0.625744 0.000000 0.917755 0.000004 131.035991 -0.000001 -0.629534 0.000001 0.940221 0.000000 1.709737 -1.941411 -0.000000 0.113772 1.960661 -88.303807 92.624619 0.000042 -0.669733 -0.113771 0.388340 -0.691365 3.566098 134.186825 
0.000000 0.000000 0.000000 -0.000000 1.019410 -4.761990 -0.000000 0.000000 1.456275 0.000000 -46.330037 0.000000 -0.000000 0.000002 1.471446 -0.000000 -1.133459 5.302760 0.625745 0.000000 0.917755 0.000004 130.313220 -0.000001 -0.629534 0.000001 0.940221 0.000000 1.709737 -2.289901 -0.000000 0.113772 1.960661 -88.303827 93.104993 0.000031 -0.669733 -0.113771 0.388340 -0.688840 3.566057 134.044621 
0.000000 0.000000 0.000000 -0.000000 1.019410 -5.537690 -0.000000 0.000000 1.456275 0.000000 -46.550673 0.000000 -0.000000 0.000002 1.471446 -0.000000 -1.133459 6.173085 0.625745 0.000000 0.917755 0.000004 129.543909 -0.000001 -0.629534 0.000001 0.940221 0.000000 1.709737 -2.660821 -0.000000 0.113772 1.960660 -88.303821 93.616294 0.000013 -0.669733 -0.113771 0.388340 -0.686152 3.566007 133.893291 
0.000000 0.000000 0.000000 -0.000000 1.019410 -6.351309 -0.000000 -0.000000 1.456275 0.000000 -46.782093 0.000001 -0.000000 0.000002 1.471446 -0.000000 -1.133460 7.085951 0.625745 0.000000 0.917755 0.000004 128.736990 -0.000001 -0.629534 0.000001 0.940221 -0.000000 1.709738 -3.049872 -0.000001 0.113772 1.960660 -88.303834 94.152587 0.000021 -0.669733 -0.113771 0.388340 -0.683333 3.565953 133.734558 
